<svg version="1.1" id="Layer_1" xmlns="http://www.w3.org/2000/svg" xmlns:xlink="http://www.w3.org/1999/xlink" x="0px" y="0px"
	 width="200px" height="138.998px" viewBox="0 0 200 138.998" enable-background="new 0 0 200 138.998" xml:space="preserve">
<g>
	<g>
		<path fill="#85D5F7" d="M163.643,34.339V23.782c0-8.748-6.258-15.84-13.971-15.84H49.546c-7.716,0-13.971,7.092-13.971,15.84
			v10.502c3.119,0.47,5.512,3.154,5.512,6.404c0,3.25-2.393,5.933-5.512,6.403v13.133c3.119,0.47,5.512,3.153,5.512,6.402
			c0,3.251-2.393,5.934-5.512,6.403v11.475c0,8.748,6.255,15.84,13.971,15.84h100.125c7.713,0,13.971-7.092,13.971-15.84V72.975
			c-2.947-0.611-5.162-3.22-5.162-6.349c0-3.127,2.215-5.736,5.162-6.348V47.036c-2.947-0.611-5.162-3.221-5.162-6.348
			C158.48,37.561,160.695,34.951,163.643,34.339z"/>
		<g>
			<linearGradient id="SVGID_1_" gradientUnits="userSpaceOnUse" x1="79.5078" y1="21.0928" x2="79.8548" y2="68.6276">
				<stop  offset="0" style="stop-color:#EF5451"/>
				<stop  offset="1" style="stop-color:#43A9DF"/>
			</linearGradient>
			<path fill="url(#SVGID_1_)" d="M103.434,57.136c2.688,2.366,2.947,6.466,0.582,9.151l0,0c-2.367,2.688-6.464,2.949-9.153,0.581
				L55.93,32.585c-2.687-2.366-2.947-6.465-0.581-9.152l0,0c2.367-2.688,6.464-2.947,9.151-0.58L103.434,57.136z"/>
			<linearGradient id="SVGID_2_" gradientUnits="userSpaceOnUse" x1="119.3896" y1="21.377" x2="119.7325" y2="68.3435">
				<stop  offset="0" style="stop-color:#EF5451"/>
				<stop  offset="1" style="stop-color:#43A9DF"/>
			</linearGradient>
			<path fill="url(#SVGID_2_)" d="M95.81,57.136c-2.688,2.366-2.948,6.466-0.581,9.151l0,0c2.367,2.688,6.462,2.949,9.152,0.581
				l38.932-34.283c2.688-2.366,2.949-6.465,0.58-9.152l0,0c-2.365-2.688-6.463-2.947-9.152-0.58L95.81,57.136z"/>
			<linearGradient id="SVGID_3_" gradientUnits="userSpaceOnUse" x1="59.98" y1="21.2354" x2="60.4533" y2="86.0764">
				<stop  offset="0" style="stop-color:#EF5451"/>
				<stop  offset="1" style="stop-color:#43A9DF"/>
			</linearGradient>
			<path fill="url(#SVGID_3_)" d="M66.701,79.593c0,3.582-2.904,6.485-6.485,6.485l0,0c-3.581,0-6.484-2.903-6.484-6.485V27.719
				c0-3.581,2.904-6.484,6.484-6.484l0,0c3.581,0,6.485,2.903,6.485,6.484V79.593z"/>
			<linearGradient id="SVGID_4_" gradientUnits="userSpaceOnUse" x1="138.791" y1="21.2354" x2="139.2643" y2="86.0764">
				<stop  offset="0" style="stop-color:#EF5451"/>
				<stop  offset="1" style="stop-color:#43A9DF"/>
			</linearGradient>
			<path fill="url(#SVGID_4_)" d="M145.512,79.593c0,3.582-2.902,6.485-6.484,6.485l0,0c-3.582,0-6.484-2.903-6.484-6.485V27.719
				c0-3.581,2.902-6.484,6.484-6.484l0,0c3.582,0,6.484,2.903,6.484,6.484V79.593z"/>
		</g>
	</g>
	<path fill="#85D5F7" d="M50.575,27.734c0,3.59-2.91,6.5-6.5,6.5h-17c-3.59,0-6.5-2.91-6.5-6.5l0,0c0-3.59,2.91-6.5,6.5-6.5h17
		C47.665,21.234,50.575,24.145,50.575,27.734L50.575,27.734z"/>
	<path fill="#85D5F7" d="M178.641,27.735c0,3.59-2.91,6.5-6.5,6.5h-17c-3.59,0-6.5-2.91-6.5-6.5l0,0c0-3.59,2.91-6.5,6.5-6.5h17
		C175.73,21.235,178.641,24.145,178.641,27.735L178.641,27.735z"/>
	<path fill="#85D5F7" d="M50.575,79.578c0,3.591-2.91,6.501-6.5,6.501h-17c-3.59,0-6.5-2.91-6.5-6.501l0,0c0-3.59,2.91-6.5,6.5-6.5
		h17C47.665,73.078,50.575,75.988,50.575,79.578L50.575,79.578z"/>
	<path fill="#85D5F7" d="M178.641,79.579c0,3.59-2.91,6.5-6.5,6.5h-17c-3.59,0-6.5-2.91-6.5-6.5l0,0c0-3.59,2.91-6.5,6.5-6.5h17
		C175.73,73.079,178.641,75.989,178.641,79.579L178.641,79.579z"/>
	<path fill="#85D5F7" d="M45.868,53.657c0,3.59-2.91,6.5-6.5,6.5h-27c-3.59,0-6.5-2.91-6.5-6.5l0,0c0-3.59,2.91-6.5,6.5-6.5h27
		C42.958,47.157,45.868,50.067,45.868,53.657L45.868,53.657z"/>
	<path fill="#85D5F7" d="M193.512,53.657c0,3.59-2.91,6.5-6.5,6.5h-27c-3.59,0-6.5-2.91-6.5-6.5l0,0c0-3.59,2.91-6.5,6.5-6.5h27
		C190.602,47.157,193.512,50.067,193.512,53.657L193.512,53.657z"/>
</g>
<text transform="matrix(1 0 0 1 17.7417 132.3872)" display="none" fill="#494849" font-family="'SegoeUI'" font-size="33.316">Mailer.com</text>
<text transform="matrix(1 0 0 1 18.7422 132.5913)" fill="#494849" font-family="'ArialRoundedMTBold'" font-size="30.6133">Mailer.com</text>
</svg>
